# xmcd
#
# Track frame offsets:
#	150
#	18875
#	36114
#	50234
#	61552
#	80746
#	95370
#	108805
#	124002
#	145890
#	168690
#	193699
#	205323
#	221341
#	233741
#
# Disc length: 3409 seconds
#
# Revision: 1
# Processed by: cddbd v1.5.2PL0 Copyright (c) Steve Scherf et al.
# Submitted via: CDmax 2.0
#
DISCID=cc0d4f0f
DTITLE=The Blues Project - Live At The Cafe Au Go Go [CD1 Of 2)
DYEAR=1966
DGENRE=Blues
TTITLE0=Goin' Down Louisiana
TTITLE1=You Go And I'll Go With You
TTITLE2=Catch The Wind
TTITLE3=I Want To Be Your Driver
TTITLE4=Alberta
TTITLE5=The Way My Baby Walks
TTITLE6=Violets Of Dawn
TTITLE7=Back Door Man
TTITLE8=Jelly Jelly Blues
TTITLE9=Spoonful
TTITLE10=Who Do You Love
TTITLE11=Hoochie Coochie Man
TTITLE12=Parchman Farm
TTITLE13=Have You Ever Had The Blues ?
TTITLE14=Alberta (Alternate Version)
EXTD=
EXTT0=
EXTT1=
EXTT2=
EXTT3=
EXTT4=
EXTT5=
EXTT6=
EXTT7=
EXTT8=
EXTT9=
EXTT10=
EXTT11=
EXTT12=
EXTT13=
EXTT14=
PLAYORDER=
